/* XPM */
static char * close_pressed_xpm[] = {
"30 30 17 1",
" 	c None",
".	c #454C59",
"+	c #70757F",
"@	c #9B9EA5",
"#	c #474E5B",
"$	c #464D5A",
"%	c #989CA3",
"&	c #737882",
"*	c #C7C9CD",
"=	c #9DA0A7",
"-	c #9A9EA5",
";	c #9CA0A7",
">	c #474E5A",
",	c #9A9EA4",
"'	c #9DA1A8",
")	c #999DA4",
"!	c #707680",
"..............................",
"..............................",
"..............................",
"..............................",
"..............................",
"..............................",
"..............................",
"..............................",
"..............................",
"..........+@#....$%&..........",
"..........%*=#..#=*%..........",
"..........$%*=#$-*;>..........",
"...........$%*=@*;>...........",
"............$,**=>............",
"............$-**'#............",
"...........$)*=,*;>...........",
"..........$%*=#$,*;>..........",
"..........%*=#..#=*%..........",
"..........!@#....#@!..........",
"..............................",
"..............................",
"..............................",
"..............................",
"..............................",
"..............................",
"..............................",
"..............................",
"..............................",
"..............................",
".............................."};
