/* XPM */
static char * close_inactive_xpm[] = {
"30 30 14 1",
" 	c None",
".	c #454C59",
"+	c #636974",
"@	c #82868F",
"#	c #464D5A",
"$	c #80848D",
"%	c #656B76",
"&	c #80858E",
"*	c #A1A5AB",
"=	c #838890",
"-	c #81868F",
";	c #838790",
">	c #81868E",
",	c #848991",
"..............................",
"..............................",
"..............................",
"..............................",
"..............................",
"..............................",
"..............................",
"..............................",
"..............................",
"..............................",
"..........+@#.....$%..........",
"..........&*=#..#=*&..........",
"...........&*=#.-*;#..........",
"............&*=@*;#...........",
".............>**=#............",
".............-**,#............",
"............&*=>*;#...........",
"...........&*=#.>*;#..........",
"..........&*=#..#=*&..........",
"..........+@#....#@+..........",
"..............................",
"..............................",
"..............................",
"..............................",
"..............................",
"..............................",
"..............................",
"..............................",
"..............................",
".............................."};
