/* XPM */
static char * close_active_xpm[] = {
"30 30 21 1",
" 	c None",
".	c #454C59",
"+	c #82868F",
"@	c #BFC1C5",
"#	c #484F5C",
"$	c #474E5A",
"%	c #BBBEC3",
"&	c #878B94",
"*	c #BCBFC3",
"=	c #FFFFFF",
"-	c #C2C4C8",
";	c #C3C5C9",
">	c #BEC0C5",
",	c #C1C4C8",
"'	c #474E5B",
")	c #BFC1C6",
"!	c #BEC0C4",
"~	c #C3C6CA",
"{	c #BDBFC4",
"]	c #BEC1C5",
"^	c #838790",
"..............................",
"..............................",
"..............................",
"..............................",
"..............................",
"..............................",
"..............................",
"..............................",
"..............................",
"..............................",
"..........+@#....$%&..........",
"..........*=-#..#-=*..........",
"..........$*=;#$>=,'..........",
"...........$*=;)=,'...........",
"............$!==;'............",
"............$>==~#............",
"...........${=;]=,'...........",
"..........$*=-#$!=,'..........",
"..........*=-#..#-=*..........",
"..........^)#....#@^..........",
"..............................",
"..............................",
"..............................",
"..............................",
"..............................",
"..............................",
"..............................",
"..............................",
"..............................",
".............................."};
